<svg viewBox="0 0 52 50" fill="none" xmlns="http://www.w3.org/2000/svg">
	<g filter="url(#filter0_i_1_36)">
		<path d="M29.4882 46.651L26.9464 49.1928C25.8702 50.2691 24.1298 50.2691 23.065 49.1928L0.80719 26.9464C-0.269063 25.8702 -0.269063 24.1298 0.80719 23.065L23.065 0.80719C24.1413 -0.269063 25.8816 -0.269063 26.9464 0.80719L29.4882 3.34898C30.5759 4.43668 30.553 6.21136 29.4424 7.27616L15.6458 20.4202H48.5516C50.0744 20.4202 51.2995 21.6453 51.2995 23.1681V26.8319C51.2995 28.3547 50.0744 29.5798 48.5516 29.5798H15.6458L29.4424 42.7238C30.5645 43.7886 30.5874 45.5633 29.4882 46.651Z" fill="#FFE600" fill-opacity="0.75" />
	</g>
	<defs>
		<filter id="filter0_i_1_36" x="0" y="0" width="51.2995" height="54" filterUnits="userSpaceOnUse" color-interpolation-filters="sRGB">
			<feFlood flood-opacity="0" result="BackgroundImageFix" />
			<feBlend mode="normal" in="SourceGraphic" in2="BackgroundImageFix" result="shape" />
			<feColorMatrix in="SourceAlpha" type="matrix" values="0 0 0 0 0 0 0 0 0 0 0 0 0 0 0 0 0 0 127 0" result="hardAlpha" />
			<feOffset dy="4" />
			<feGaussianBlur stdDeviation="2" />
			<feComposite in2="hardAlpha" operator="arithmetic" k2="-1" k3="1" />
			<feColorMatrix type="matrix" values="0 0 0 0 0 0 0 0 0 0 0 0 0 0 0 0 0 0 0.25 0" />
			<feBlend mode="normal" in2="shape" result="effect1_innerShadow_1_36" />
		</filter>
	</defs>
</svg>
