<svg width="52" height="50" viewBox="0 0 52 50" fill="none" xmlns="http://www.w3.org/2000/svg">
	<g filter="url(#filter0_i_1_38)">
		<path d="M21.8113 3.34898L24.3531 0.80719C25.4294 -0.269063 27.1697 -0.269063 28.2345 0.80719L50.4923 23.0536C51.5686 24.1298 51.5686 25.8702 50.4923 26.935L28.2345 49.1928C27.1582 50.2691 25.4179 50.2691 24.3531 49.1928L21.8113 46.651C20.7236 45.5633 20.7465 43.7886 21.8571 42.7238L35.6538 29.5798H2.74788C1.2251 29.5798 0 28.3547 0 26.8319V23.1681C0 21.6453 1.2251 20.4202 2.74788 20.4202H35.6538L21.8571 7.27616C20.7351 6.21136 20.7122 4.43668 21.8113 3.34898Z" fill="#00FFC2" />
	</g>
	<defs>
		<filter id="filter0_i_1_38" x="0" y="0" width="51.2995" height="54" filterUnits="userSpaceOnUse" color-interpolation-filters="sRGB">
			<feFlood flood-opacity="0" result="BackgroundImageFix" />
			<feBlend mode="normal" in="SourceGraphic" in2="BackgroundImageFix" result="shape" />
			<feColorMatrix in="SourceAlpha" type="matrix" values="0 0 0 0 0 0 0 0 0 0 0 0 0 0 0 0 0 0 127 0" result="hardAlpha" />
			<feOffset dy="4" />
			<feGaussianBlur stdDeviation="2" />
			<feComposite in2="hardAlpha" operator="arithmetic" k2="-1" k3="1" />
			<feColorMatrix type="matrix" values="0 0 0 0 0 0 0 0 0 0 0 0 0 0 0 0 0 0 0.25 0" />
			<feBlend mode="normal" in2="shape" result="effect1_innerShadow_1_38" />
		</filter>
	</defs>
</svg>
