<svg width="26" height="25" viewBox="0 0 26 25" fill="none" xmlns="http://www.w3.org/2000/svg">
	<path d="M14.7441 23.3255L13.4732 24.5964C12.9351 25.1345 12.0649 25.1345 11.5325 24.5964L0.403595 13.4732C-0.134532 12.9351 -0.134532 12.0649 0.403595 11.5325L11.5325 0.403595C12.0706 -0.134532 12.9408 -0.134532 13.4732 0.403595L14.7441 1.67449C15.288 2.21834 15.2765 3.10568 14.7212 3.63808L7.82288 10.2101H24.2758C25.0372 10.2101 25.6498 10.8226 25.6498 11.584V13.416C25.6498 14.1774 25.0372 14.7899 24.2758 14.7899H7.82288L14.7212 21.3619C15.2822 21.8943 15.2937 22.7817 14.7441 23.3255Z" fill="black" />
</svg>
