<svg width="24" height="27" viewBox="0 0 24 27" fill="none" xmlns="http://www.w3.org/2000/svg">
	<path d="M18.1875 8.8125V7.25C18.1875 3.80371 15.3837 1 11.9375 1C8.49121 1 5.6875 3.80371 5.6875 7.25V8.8125H1V22.0938C1 24.2511 2.74888 26 4.90625 26H18.9688C21.1261 26 22.875 24.2511 22.875 22.0938V8.8125H18.1875ZM8.8125 7.25C8.8125 5.52686 10.2144 4.125 11.9375 4.125C13.6606 4.125 15.0625 5.52686 15.0625 7.25V8.8125H8.8125V7.25ZM16.625 13.1094C15.9778 13.1094 15.4531 12.5847 15.4531 11.9375C15.4531 11.2903 15.9778 10.7656 16.625 10.7656C17.2722 10.7656 17.7969 11.2903 17.7969 11.9375C17.7969 12.5847 17.2722 13.1094 16.625 13.1094ZM7.25 13.1094C6.60278 13.1094 6.07812 12.5847 6.07812 11.9375C6.07812 11.2903 6.60278 10.7656 7.25 10.7656C7.89722 10.7656 8.42188 11.2903 8.42188 11.9375C8.42188 12.5847 7.89722 13.1094 7.25 13.1094Z" stroke="black" stroke-width="2" />
</svg>
